<?xml version="1.0" encoding="UTF-8"?> <svg width="40px" height="40px" viewBox="0 0 40 40" version="1.1" xmlns="http://www.w3.org/2000/svg" xmlns:xlink="http://www.w3.org/1999/xlink"> <!-- Generator: Sketch 42 (36781) - http://www.bohemiancoding.com/sketch --> <title>Shape</title> <desc>Created with Sketch.</desc> <defs></defs> <g id="Ancestory" stroke="none" stroke-width="1" fill="none" fill-rule="evenodd"> <g id="Desktop-HD" transform="translate(-70.000000, -1105.000000)" fill="#4A4A4A"> <g id="chevron-with-circle-right-copy" transform="translate(90.000000, 1125.000000) rotate(-180.000000) translate(-90.000000, -1125.000000) translate(70.000000, 1105.000000)"> <path d="M22.0833333,20 L17.2875,14.7791667 C16.8791667,14.3666667 16.8791667,13.6979167 17.2875,13.2833333 C17.6958333,12.8729167 18.3604167,12.8729167 18.7666667,13.2833333 L24.6145833,19.25 C25.0229167,19.6645833 25.0229167,20.3333333 24.6145833,20.74375 L18.7666667,26.7104167 C18.3604167,27.125 17.6958333,27.1229167 17.2875,26.7104167 C16.8791667,26.3 16.8791667,25.63125 17.2875,25.2166667 L22.0833333,20 L22.0833333,20 Z M20,0 C31.0458333,0 40,8.95416667 40,20 C40,31.0479167 31.0458333,40 20,40 C8.95416667,40 0,31.0479167 0,20 C0,8.95416667 8.95416667,0 20,0 L20,0 Z M20,37.4041667 C29.6104167,37.4041667 37.4041667,29.6125 37.4041667,20 C37.4041667,10.3875 29.6104167,2.59583333 20,2.59583333 C10.3854167,2.59583333 2.59583333,10.3875 2.59583333,20 C2.59375,29.6125 10.3854167,37.4041667 20,37.4041667 L20,37.4041667 Z" id="Shape"></path> </g> </g> </g> </svg>