<?xml version="1.0" encoding="UTF-8"?>
<svg width="43px" height="43px" viewBox="0 0 43 43" version="1.1" xmlns="http://www.w3.org/2000/svg" xmlns:xlink="http://www.w3.org/1999/xlink">
    <!-- Generator: Sketch 42 (36781) - http://www.bohemiancoding.com/sketch -->
    <title>behance</title>
    <desc>Created with Sketch.</desc>
    <defs></defs>
    <g id="Scout" stroke="none" stroke-width="1" fill="none" fill-rule="evenodd">
        <path d="M21.5,43 C9.62587788,43 0,33.3741221 0,21.5 C0,9.62587788 9.62587788,0 21.5,0 C33.3741221,0 43,9.62587788 43,21.5 C43,33.3741221 33.3741221,43 21.5,43 Z M21.5,40 C31.7172679,40 40,31.7172679 40,21.5 C40,11.2827321 31.7172679,3 21.5,3 C11.2827321,3 3,11.2827321 3,21.5 C3,31.7172679 11.2827321,40 21.5,40 Z M32.662,21.639 C32.75,22.09 32.75,22.739 32.75,23.586 L25.6,23.586 C25.655,24.576 25.985,25.258 26.634,25.654 C27.019,25.907 27.492,26.028 28.053,26.028 C28.636,26.028 29.109,25.874 29.45,25.577 C29.67,25.412 29.846,25.192 30,24.895 L32.618,24.895 C32.552,25.489 32.233,26.072 31.65,26.677 C30.792,27.645 29.56,28.107 27.976,28.107 C26.667,28.107 25.523,27.7 24.5,26.897 C23.532,26.094 23.026,24.785 23.026,22.97 C23.026,21.265 23.477,19.945 24.379,19.065 C25.281,18.152 26.447,17.701 27.888,17.701 C28.735,17.701 29.505,17.855 30.187,18.163 C30.869,18.471 31.441,18.944 31.881,19.615 C32.288,20.198 32.541,20.869 32.662,21.639 Z M21.442,22.057 C21.794,22.607 21.97,23.278 21.97,24.059 C21.97,24.895 21.75,25.599 21.365,26.248 C21.101,26.677 20.782,27.029 20.397,27.326 C19.957,27.645 19.44,27.887 18.846,28.008 C18.252,28.129 17.614,28.195 16.921,28.195 L10.75,28.195 L10.75,14.5 L17.35,14.5 C19.033,14.533 20.21,14.995 20.903,15.963 C21.321,16.546 21.53,17.239 21.53,18.053 C21.53,18.889 21.321,19.56 20.903,20.066 C20.65,20.352 20.32,20.616 19.858,20.847 C20.551,21.1 21.079,21.507 21.442,22.057 Z M30.616,16.447 L25.105,16.447 L25.105,15.072 L30.616,15.072 L30.616,16.447 Z M13.907,19.901 L16.8,19.901 C17.394,19.901 17.9,19.791 18.252,19.56 C18.626,19.34 18.802,18.933 18.802,18.361 C18.802,17.745 18.56,17.305 18.076,17.096 C17.647,16.953 17.108,16.887 16.459,16.887 L13.907,16.887 L13.907,19.901 Z M19.088,23.872 C19.088,23.157 18.791,22.662 18.219,22.398 C17.9,22.255 17.438,22.178 16.844,22.145 L13.907,22.145 L13.907,25.819 L16.8,25.819 C17.394,25.819 17.856,25.742 18.186,25.577 C18.791,25.28 19.088,24.708 19.088,23.872 Z M30.088,21.892 C30.044,21.21 29.813,20.693 29.406,20.341 C28.999,19.989 28.493,19.813 27.888,19.813 C27.25,19.813 26.7,20 26.359,20.374 C25.996,20.748 25.765,21.254 25.677,21.892 L30.088,21.892 Z" id="behance" fill="#FFFFFF" fill-rule="nonzero"></path>
    </g>
</svg>