<?xml version="1.0" encoding="UTF-8"?>
<svg width="300px" height="370px" viewBox="0 0 300 370" version="1.1" xmlns="http://www.w3.org/2000/svg" xmlns:xlink="http://www.w3.org/1999/xlink">
    <!-- Generator: Sketch 42 (36781) - http://www.bohemiancoding.com/sketch -->
    <title>gr_team</title>
    <desc>Created with Sketch.</desc>
    <defs></defs>
    <g id="Netpulse" stroke="none" stroke-width="1" fill="none" fill-rule="evenodd">
        <g id="Desktop-HD" transform="translate(-86.000000, -534.000000)">
            <g id="gr_team" transform="translate(86.000000, 533.000000)">
                <g id="Group-5" transform="translate(1.000000, 0.000000)">
                    <path d="M42.3709691,161.604582 L39.3381509,164.412312 L29.2571695,168.941123 L17.0437219,168.068333 L7,162.309959 L8.07593078,160.85582 L18.0410505,157.159987 L20.7298567,155.629797 L20.5803084,151.078018 L17.5653544,147.393925 L16.7114492,143.788434 L15.8988867,141.154241 C15.8988867,141.154241 17.3892652,139.895075 17.0503572,139.250946 C16.7114492,138.606816 16.8385397,133.720723 16.8385397,133.720723 L18.4896953,131.727597 L21.255062,130.364819 L24.7702115,129 L28.9693019,129.298076 L31.7387518,129.931487 L33.6272451,132.971961 L32.3262263,139.318319 L34.1269302,141.849921 L32.2062815,144.838334 L30.0023588,150.20829 L28.9519482,152.078919 L29.2449198,156.317311 L37.7196611,159.016835 L42.3709691,161.604582 Z" id="Path-3-Copy-3" fill="#17BEBB"></path>
                    <path d="M112.370969,161.604582 L109.338151,164.412312 L99.2571695,168.941123 L87.0437219,168.068333 L77,162.309959 L78.0759308,160.85582 L88.0410505,157.159987 L90.7298567,155.629797 L90.5803084,151.078018 L87.5653544,147.393925 L86.7114492,143.788434 L85.8988867,141.154241 C85.8988867,141.154241 87.3892652,139.895075 87.0503572,139.250946 C86.7114492,138.606816 86.8385397,133.720723 86.8385397,133.720723 L88.4896953,131.727597 L91.255062,130.364819 L94.7702115,129 L98.9693019,129.298076 L101.738752,129.931487 L103.627245,132.971961 L102.326226,139.318319 L104.12693,141.849921 L102.206281,144.838334 L100.002359,150.20829 L98.9519482,152.078919 L99.2449198,156.317311 L107.719661,159.016835 L112.370969,161.604582 Z" id="Path-3-Copy-4" fill="#F3C969"></path>
                    <g id="Stroke-1703-+-Stroke-1704-Copy-3" transform="translate(0.000000, 119.000000)" stroke="#4A4A4A" stroke-width="2" stroke-linejoin="round">
                        <path d="M20.6521739,31.5217391 C20.6521739,31.5217391 17.3913043,30.4347826 17.3913043,25 C15.5956522,25 15.5956522,20.6521739 17.3913043,20.6521739 C17.3913043,19.923913 14.1304348,11.9565217 19.5652174,13.0434783 C20.6521739,8.69565217 32.6086957,8.69565217 33.6956522,13.0434783 C34.448913,16.0597826 32.6086957,20.1184783 32.6086957,20.6521739 C34.4043478,20.6521739 34.4043478,25 32.6086957,25 C32.6086957,30.4347826 29.3478261,31.5217391 29.3478261,31.5217391 L29.3478261,36.9565217 C34.7326087,38.975 40.0641304,40.6478261 42.7945652,42.5543478 C47.248913,38.0402174 50,31.8423913 50,25 C50,11.1923913 38.8065217,0 25,0 C11.1923913,0 0,11.1923913 0,25 C0,31.8554348 2.76086957,38.0641304 7.22826087,42.5804348 C10.1195652,40.5804348 15.8206522,38.7836957 20.6521739,36.9565217 L20.6521739,31.5217391 L20.6521739,31.5217391 Z" id="Stroke-1703"></path>
                        <path d="M7.22869565,42.5802174 C11.7613043,47.1606522 18.0471739,49.9997826 25.0004348,49.9997826 C31.9645652,49.9997826 38.2613043,47.1497826 42.795,42.5552174" id="Stroke-1704"></path>
                    </g>
                    <path d="M42.3709691,72.6045816 L39.3381509,75.4123118 L29.2571695,79.9411228 L17.0437219,79.0683327 L7,73.3099594 L8.07593078,71.8558195 L18.0410505,68.1599871 L20.7298567,66.6297971 L20.5803084,62.0780179 L17.5653544,58.3939247 L16.7114492,54.7884337 L15.8988867,52.1542408 C15.8988867,52.1542408 17.3892652,50.8950751 17.0503572,50.2509458 C16.7114492,49.6068164 16.8385397,44.7207228 16.8385397,44.7207228 L18.4896953,42.7275968 L21.255062,41.3648192 L24.7702115,40 L28.9693019,40.2980757 L31.7387518,40.9314866 L33.6272451,43.9719608 L32.3262263,50.3183191 L34.1269302,52.8499209 L32.2062815,55.8383339 L30.0023588,61.2082901 L28.9519482,63.0789193 L29.2449198,67.3173108 L37.7196611,70.0168354 L42.3709691,72.6045816 Z" id="Path-3" fill="#17BEBB"></path>
                    <path d="M112.370969,72.6045816 L109.338151,75.4123118 L99.2571695,79.9411228 L87.0437219,79.0683327 L77,73.3099594 L78.0759308,71.8558195 L88.0410505,68.1599871 L90.7298567,66.6297971 L90.5803084,62.0780179 L87.5653544,58.3939247 L86.7114492,54.7884337 L85.8988867,52.1542408 C85.8988867,52.1542408 87.3892652,50.8950751 87.0503572,50.2509458 C86.7114492,49.6068164 86.8385397,44.7207228 86.8385397,44.7207228 L88.4896953,42.7275968 L91.255062,41.3648192 L94.7702115,40 L98.9693019,40.2980757 L101.738752,40.9314866 L103.627245,43.9719608 L102.326226,50.3183191 L104.12693,52.8499209 L102.206281,55.8383339 L100.002359,61.2082901 L98.9519482,63.0789193 L99.2449198,67.3173108 L107.719661,70.0168354 L112.370969,72.6045816 Z" id="Path-3-Copy" fill="#17BEBB"></path>
                    <g id="Stroke-1703-+-Stroke-1704" transform="translate(0.000000, 30.000000)" stroke="#4A4A4A" stroke-width="2" stroke-linejoin="round">
                        <path d="M20.6521739,31.5217391 C20.6521739,31.5217391 17.3913043,30.4347826 17.3913043,25 C15.5956522,25 15.5956522,20.6521739 17.3913043,20.6521739 C17.3913043,19.923913 14.1304348,11.9565217 19.5652174,13.0434783 C20.6521739,8.69565217 32.6086957,8.69565217 33.6956522,13.0434783 C34.448913,16.0597826 32.6086957,20.1184783 32.6086957,20.6521739 C34.4043478,20.6521739 34.4043478,25 32.6086957,25 C32.6086957,30.4347826 29.3478261,31.5217391 29.3478261,31.5217391 L29.3478261,36.9565217 C34.7326087,38.975 40.0641304,40.6478261 42.7945652,42.5543478 C47.248913,38.0402174 50,31.8423913 50,25 C50,11.1923913 38.8065217,0 25,0 C11.1923913,0 0,11.1923913 0,25 C0,31.8554348 2.76086957,38.0641304 7.22826087,42.5804348 C10.1195652,40.5804348 15.8206522,38.7836957 20.6521739,36.9565217 L20.6521739,31.5217391 L20.6521739,31.5217391 Z" id="Stroke-1703"></path>
                        <path d="M7.22869565,42.5802174 C11.7613043,47.1606522 18.0471739,49.9997826 25.0004348,49.9997826 C31.9645652,49.9997826 38.2613043,47.1497826 42.795,42.5552174" id="Stroke-1704"></path>
                    </g>
                    <g id="Stroke-1703-+-Stroke-1704-Copy" transform="translate(70.000000, 30.000000)" stroke="#4A4A4A" stroke-width="2" stroke-linejoin="round">
                        <path d="M20.6521739,31.5217391 C20.6521739,31.5217391 17.3913043,30.4347826 17.3913043,25 C15.5956522,25 15.5956522,20.6521739 17.3913043,20.6521739 C17.3913043,19.923913 14.1304348,11.9565217 19.5652174,13.0434783 C20.6521739,8.69565217 32.6086957,8.69565217 33.6956522,13.0434783 C34.448913,16.0597826 32.6086957,20.1184783 32.6086957,20.6521739 C34.4043478,20.6521739 34.4043478,25 32.6086957,25 C32.6086957,30.4347826 29.3478261,31.5217391 29.3478261,31.5217391 L29.3478261,36.9565217 C34.7326087,38.975 40.0641304,40.6478261 42.7945652,42.5543478 C47.248913,38.0402174 50,31.8423913 50,25 C50,11.1923913 38.8065217,0 25,0 C11.1923913,0 0,11.1923913 0,25 C0,31.8554348 2.76086957,38.0641304 7.22826087,42.5804348 C10.1195652,40.5804348 15.8206522,38.7836957 20.6521739,36.9565217 L20.6521739,31.5217391 L20.6521739,31.5217391 Z" id="Stroke-1703"></path>
                        <path d="M7.22869565,42.5802174 C11.7613043,47.1606522 18.0471739,49.9997826 25.0004348,49.9997826 C31.9645652,49.9997826 38.2613043,47.1497826 42.795,42.5552174" id="Stroke-1704"></path>
                    </g>
                    <g id="Stroke-1703-+-Stroke-1704-Copy-4" transform="translate(70.000000, 119.000000)" stroke="#4A4A4A" stroke-width="2" stroke-linejoin="round">
                        <path d="M20.6521739,31.5217391 C20.6521739,31.5217391 17.3913043,30.4347826 17.3913043,25 C15.5956522,25 15.5956522,20.6521739 17.3913043,20.6521739 C17.3913043,19.923913 14.1304348,11.9565217 19.5652174,13.0434783 C20.6521739,8.69565217 32.6086957,8.69565217 33.6956522,13.0434783 C34.448913,16.0597826 32.6086957,20.1184783 32.6086957,20.6521739 C34.4043478,20.6521739 34.4043478,25 32.6086957,25 C32.6086957,30.4347826 29.3478261,31.5217391 29.3478261,31.5217391 L29.3478261,36.9565217 C34.7326087,38.975 40.0641304,40.6478261 42.7945652,42.5543478 C47.248913,38.0402174 50,31.8423913 50,25 C50,11.1923913 38.8065217,0 25,0 C11.1923913,0 0,11.1923913 0,25 C0,31.8554348 2.76086957,38.0641304 7.22826087,42.5804348 C10.1195652,40.5804348 15.8206522,38.7836957 20.6521739,36.9565217 L20.6521739,31.5217391 L20.6521739,31.5217391 Z" id="Stroke-1703"></path>
                        <path d="M7.22869565,42.5802174 C11.7613043,47.1606522 18.0471739,49.9997826 25.0004348,49.9997826 C31.9645652,49.9997826 38.2613043,47.1497826 42.795,42.5552174" id="Stroke-1704"></path>
                    </g>
                    <text id="PM" font-family="PTSerif-Bold, PT Serif" font-size="15" font-weight="bold" letter-spacing="0.579999983" fill="#4A4A4A">
                        <tspan x="12.935" y="101">P</tspan>
                        <tspan x="23.115" y="101">M</tspan>
                    </text>
                    <text id="San-Francisco" font-family="PTSans-Regular, PT Sans" font-size="15" font-weight="normal" letter-spacing="0.579999983" fill="#E54B4B">
                        <tspan x="10.8925001" y="13">San Francisco</tspan>
                    </text>
                    <text id="Kiev" font-family="PTSans-Regular, PT Sans" font-size="15" font-weight="normal" letter-spacing="0.579999983" fill="#E54B4B">
                        <tspan x="257.995" y="13">Kiev</tspan>
                    </text>
                    <text id="PD" font-family="PTSerif-Bold, PT Serif" font-size="15" font-weight="bold" letter-spacing="0.579999983" fill="#4A4A4A">
                        <tspan x="14.1" y="190">PD</tspan>
                    </text>
                    <text id="PM-Copy" font-family="PTSerif-Bold, PT Serif" font-size="15" font-weight="bold" letter-spacing="0.579999983" fill="#4A4A4A">
                        <tspan x="82.935" y="101">P</tspan>
                        <tspan x="93.115" y="101">M</tspan>
                    </text>
                    <text id="PD" font-family="PTSerif-Bold, PT Serif" font-size="15" font-weight="bold" letter-spacing="0.579999983" fill="#4A4A4A">
                        <tspan x="84.1" y="190">PD</tspan>
                    </text>
                    <path d="M290.370969,72.6045816 L287.338151,75.4123118 L277.25717,79.9411228 L265.043722,79.0683327 L255,73.3099594 L256.075931,71.8558195 L266.041051,68.1599871 L268.729857,66.6297971 L268.580308,62.0780179 L265.565354,58.3939247 L264.711449,54.7884337 L263.898887,52.1542408 C263.898887,52.1542408 265.389265,50.8950751 265.050357,50.2509458 C264.711449,49.6068164 264.83854,44.7207228 264.83854,44.7207228 L266.489695,42.7275968 L269.255062,41.3648192 L272.770212,40 L276.969302,40.2980757 L279.738752,40.9314866 L281.627245,43.9719608 L280.326226,50.3183191 L282.12693,52.8499209 L280.206281,55.8383339 L278.002359,61.2082901 L276.951948,63.0789193 L277.24492,67.3173108 L285.719661,70.0168354 L290.370969,72.6045816 Z" id="Path-3-Copy-2" fill="#17BEBB"></path>
                    <path d="M290.370969,161.604582 L287.338151,164.412312 L277.25717,168.941123 L265.043722,168.068333 L255,162.309959 L256.075931,160.85582 L266.041051,157.159987 L268.729857,155.629797 L268.580308,151.078018 L265.565354,147.393925 L264.711449,143.788434 L263.898887,141.154241 C263.898887,141.154241 265.389265,139.895075 265.050357,139.250946 C264.711449,138.606816 264.83854,133.720723 264.83854,133.720723 L266.489695,131.727597 L269.255062,130.364819 L272.770212,129 L276.969302,129.298076 L279.738752,129.931487 L281.627245,132.971961 L280.326226,139.318319 L282.12693,141.849921 L280.206281,144.838334 L278.002359,150.20829 L276.951948,152.078919 L277.24492,156.317311 L285.719661,159.016835 L290.370969,161.604582 Z" id="Path-3-Copy-5" fill="#17BEBB"></path>
                    <g id="Stroke-1703-+-Stroke-1704-Copy-2" transform="translate(248.000000, 30.000000)" stroke="#4A4A4A" stroke-width="2" stroke-linejoin="round">
                        <path d="M20.6521739,31.5217391 C20.6521739,31.5217391 17.3913043,30.4347826 17.3913043,25 C15.5956522,25 15.5956522,20.6521739 17.3913043,20.6521739 C17.3913043,19.923913 14.1304348,11.9565217 19.5652174,13.0434783 C20.6521739,8.69565217 32.6086957,8.69565217 33.6956522,13.0434783 C34.448913,16.0597826 32.6086957,20.1184783 32.6086957,20.6521739 C34.4043478,20.6521739 34.4043478,25 32.6086957,25 C32.6086957,30.4347826 29.3478261,31.5217391 29.3478261,31.5217391 L29.3478261,36.9565217 C34.7326087,38.975 40.0641304,40.6478261 42.7945652,42.5543478 C47.248913,38.0402174 50,31.8423913 50,25 C50,11.1923913 38.8065217,0 25,0 C11.1923913,0 0,11.1923913 0,25 C0,31.8554348 2.76086957,38.0641304 7.22826087,42.5804348 C10.1195652,40.5804348 15.8206522,38.7836957 20.6521739,36.9565217 L20.6521739,31.5217391 L20.6521739,31.5217391 Z" id="Stroke-1703"></path>
                        <path d="M7.22869565,42.5802174 C11.7613043,47.1606522 18.0471739,49.9997826 25.0004348,49.9997826 C31.9645652,49.9997826 38.2613043,47.1497826 42.795,42.5552174" id="Stroke-1704"></path>
                    </g>
                    <g id="Stroke-1703-+-Stroke-1704-Copy-5" transform="translate(248.000000, 119.000000)" stroke="#4A4A4A" stroke-width="2" stroke-linejoin="round">
                        <path d="M20.6521739,31.5217391 C20.6521739,31.5217391 17.3913043,30.4347826 17.3913043,25 C15.5956522,25 15.5956522,20.6521739 17.3913043,20.6521739 C17.3913043,19.923913 14.1304348,11.9565217 19.5652174,13.0434783 C20.6521739,8.69565217 32.6086957,8.69565217 33.6956522,13.0434783 C34.448913,16.0597826 32.6086957,20.1184783 32.6086957,20.6521739 C34.4043478,20.6521739 34.4043478,25 32.6086957,25 C32.6086957,30.4347826 29.3478261,31.5217391 29.3478261,31.5217391 L29.3478261,36.9565217 C34.7326087,38.975 40.0641304,40.6478261 42.7945652,42.5543478 C47.248913,38.0402174 50,31.8423913 50,25 C50,11.1923913 38.8065217,0 25,0 C11.1923913,0 0,11.1923913 0,25 C0,31.8554348 2.76086957,38.0641304 7.22826087,42.5804348 C10.1195652,40.5804348 15.8206522,38.7836957 20.6521739,36.9565217 L20.6521739,31.5217391 L20.6521739,31.5217391 Z" id="Stroke-1703"></path>
                        <path d="M7.22869565,42.5802174 C11.7613043,47.1606522 18.0471739,49.9997826 25.0004348,49.9997826 C31.9645652,49.9997826 38.2613043,47.1497826 42.795,42.5552174" id="Stroke-1704"></path>
                    </g>
                    <text id="PM-Copy-2" font-family="PTSerif-Bold, PT Serif" font-size="15" font-weight="bold" letter-spacing="0.579999983" fill="#4A4A4A">
                        <tspan x="260.935" y="101">P</tspan>
                        <tspan x="271.115" y="101">M</tspan>
                    </text>
                    <text id="PD" font-family="PTSerif-Bold, PT Serif" font-size="15" font-weight="bold" letter-spacing="0.579999983" fill="#4A4A4A">
                        <tspan x="262.1" y="190">PD</tspan>
                    </text>
                    <g id="Stroke-4829-+-Stroke-4830" transform="translate(71.000000, 208.000000)" stroke="#4A4A4A" stroke-width="2.5" stroke-linecap="round" stroke-linejoin="round">
                        <path d="M161,80.5 C161,124.9605 124.9535,161 80.5,161 C36.0395,161 0,124.9605 0,80.5 C0,36.043 36.0395,0 80.5,0 C124.9535,0 161,36.043 161,80.5 L161,80.5 Z" id="Stroke-4829"></path>
                        <path d="M140,26.2843 C140,26.2843 136.5,45.4993 122.5,52.4993 C108.5,48.9993 94.5,59.4993 98,59.4993 C101.5,59.4993 105,73.4993 105,73.4993 C108.5,76.9993 115.5,73.4993 115.5,73.4993 C124.25,82.2493 101.5,97.9993 101.5,101.4993 C101.5,104.9993 110.25,106.7493 105,111.9993 C99.75,117.2493 94.5,118.9993 94.5,118.9993 C94.5,136.4993 77,136.4993 73.5,136.4993 C70,136.4993 63,122.4993 63,118.9993 C63,115.4993 66.5,111.9993 66.5,108.4993 C66.5,104.9993 59.5,97.9993 59.5,97.9993 C59.5,83.9993 49,87.4993 38.5,87.4993 C28,87.4993 28,73.4993 28,73.4993 C28,73.4993 28,48.9993 45.5,45.4993 C63,41.9993 63,48.9993 63,48.9993 C70,55.9993 84,48.9993 91,48.9993 C91,48.9993 94.5,24.4993 87.5,27.9993 C80.5,31.4993 74.2245,28.7938 73.5,20.9993 C72.4815,10.0583 104.0445,3.4993 104.0445,3.4993" id="Stroke-4830"></path>
                    </g>
                    <path d="M97.4585534,245.662452 C97.4585534,245.662452 58.5531147,259.511025 58.5531147,179.558594" id="Path-4" stroke="#4A4A4A" stroke-width="2.5" stroke-linecap="round" stroke-dasharray="5,5"></path>
                    <path d="M103.409043,240.880821 L103.409043,250.937264" id="Path-5" stroke="#4A4A4A" stroke-width="2.5" stroke-linecap="round" transform="translate(103.909043, 245.909043) rotate(-315.000000) translate(-103.909043, -245.909043) "></path>
                    <path d="M107.937264,245.409043 L97.8808214,245.409043" id="Path-5" stroke="#4A4A4A" stroke-width="2.5" stroke-linecap="round" transform="translate(102.909043, 245.909043) rotate(-315.000000) translate(-102.909043, -245.909043) "></path>
                    <g id="Group-3" transform="translate(203.500000, 305.500000) rotate(-13.000000) translate(-203.500000, -305.500000) translate(199.000000, 301.000000)" stroke="#4A4A4A" stroke-width="2.5" stroke-linecap="round">
                        <path d="M4.47177854,-0.755585371 L4.47177854,9.30085755" id="Path-5-Copy" transform="translate(4.971779, 4.272636) rotate(-315.000000) translate(-4.971779, -4.272636) "></path>
                        <path d="M9,3.77263609 L-1.05644292,3.77263609" id="Path-5-Copy-2" transform="translate(3.971779, 4.272636) rotate(-315.000000) translate(-3.971779, -4.272636) "></path>
                    </g>
                    <path d="M210.087855,303.272636 C210.087855,303.272636 272.330771,306.843644 272.330771,202.164062" id="Path-6" stroke="#4A4A4A" stroke-width="2.5" stroke-linecap="round" stroke-dasharray="5,5"></path>
                </g>
            </g>
        </g>
    </g>
</svg>