<?xml version="1.0" encoding="UTF-8"?>
<svg width="100px" height="100px" viewBox="0 0 100 100" version="1.1" xmlns="http://www.w3.org/2000/svg" xmlns:xlink="http://www.w3.org/1999/xlink">
    <!-- Generator: Sketch 42 (36781) - http://www.bohemiancoding.com/sketch -->
    <title>ic_devices</title>
    <desc>Created with Sketch.</desc>
    <defs></defs>
    <g id="Home" stroke="none" stroke-width="1" fill="none" fill-rule="evenodd">
        <g id="Desktop-HD-Copy-3" transform="translate(-1119.000000, -474.000000)">
            <g id="ic_devices" transform="translate(1119.000000, 474.000000)">
                <circle id="bg" stroke="#4A4A4A" stroke-width="2" fill="#FFFFFF" cx="50" cy="50" r="49.0566038"></circle>
                <path d="M68.0960549,59.0051458 L22.6415094,59.0051458 L22.6415094,63.0255918 C22.6415094,64.3217264 23.6140666,65.3518353 24.7855918,65.3518353 L45.3488768,65.3518353 C45.3554954,65.3516983 45.3621307,65.3516295 45.3687822,65.3516295 C45.3754336,65.3516295 45.3820689,65.3516983 45.3886875,65.3518353 L65.9519726,65.3518353 C67.1234977,65.3518353 68.0960549,64.3217264 68.0960549,63.0255918 L68.0960549,59.0051458 Z M68.0960549,57.1183533 L68.0960549,32.5151286 C68.0960549,31.2183631 67.123882,30.1888851 65.9519726,30.1888851 L24.7855918,30.1888851 C23.6136823,30.1888851 22.6415094,31.2183631 22.6415094,32.5151286 L22.6415094,57.1183533 L68.0960549,57.1183533 Z M46.3121784,67.2386278 L46.3121784,69.4682676 L59.7770154,69.4682676 C60.2980388,69.4682676 60.7204117,69.8906405 60.7204117,70.4116638 C60.7204117,70.9326872 60.2980388,71.35506 59.7770154,71.35506 L30.9605489,71.35506 C30.4395255,71.35506 30.0171527,70.9326872 30.0171527,70.4116638 C30.0171527,69.8906405 30.4395255,69.4682676 30.9605489,69.4682676 L44.4253859,69.4682676 L44.4253859,67.2386278 L24.7855918,67.2386278 C22.5469944,67.2386278 20.754717,65.3402911 20.754717,63.0255918 L20.754717,32.5151286 C20.754717,30.1997127 22.5467074,28.3020926 24.7855918,28.3020926 L65.9519726,28.3020926 C68.1908569,28.3020926 69.9828473,30.1997127 69.9828473,32.5151286 L69.9828473,63.0255918 C69.9828473,65.3402911 68.1905699,67.2386278 65.9519726,67.2386278 L46.3121784,67.2386278 Z M47.3413379,62.1783877 C47.3413379,63.2675071 46.4579016,64.1509434 45.3687822,64.1509434 C44.278843,64.1509434 43.3962264,63.2677168 43.3962264,62.1783877 C43.3962264,61.0882391 44.2786336,60.2058319 45.3687822,60.2058319 C46.4581113,60.2058319 47.3413379,61.0884485 47.3413379,62.1783877 Z" id="desktop" fill="#17BEBB" fill-rule="nonzero"></path>
                <rect id="Rectangle" fill="#FFFFFF" x="58.25" y="43" width="19.5" height="30.5"></rect>
                <path d="M58.6668217,67.7530017 L77.3632197,67.7530017 L77.3632197,49.0566038 L58.6668217,49.0566038 L58.6668217,67.7530017 Z M58.6668217,69.6397942 L58.6668217,71.4408233 C58.6668217,72.4354089 59.4732653,73.2418525 60.4678509,73.2418525 L75.5621905,73.2418525 C76.5567761,73.2418525 77.3632197,72.4354089 77.3632197,71.4408233 L77.3632197,69.6397942 L58.6668217,69.6397942 Z M58.6668217,47.1698113 L77.3632197,47.1698113 L77.3632197,45.3687822 C77.3632197,44.3737839 76.5570496,43.567753 75.5621905,43.567753 L60.4678509,43.567753 C59.4729919,43.567753 58.6668217,44.3737839 58.6668217,45.3687822 L58.6668217,47.1698113 Z M79.2500121,71.4408233 C79.2500121,73.4774556 77.5988228,75.1286449 75.5621905,75.1286449 L60.4678509,75.1286449 C58.4312186,75.1286449 56.7800293,73.4774556 56.7800293,71.4408233 L56.7800293,45.3687822 C56.7800293,43.3316643 58.4310181,41.6809605 60.4678509,41.6809605 L75.5621905,41.6809605 C77.5990233,41.6809605 79.2500121,43.3316643 79.2500121,45.3687822 L79.2500121,71.4408233 Z M68.0150207,70.0686106 C68.7731682,70.0686106 69.3872334,70.6826758 69.3872334,71.4408233 C69.3872334,72.1982847 68.7731682,72.813036 68.0150207,72.813036 C67.2575593,72.813036 66.642808,72.1982847 66.642808,71.4408233 C66.642808,70.6826758 67.2575593,70.0686106 68.0150207,70.0686106 Z M64.584489,46.3121784 C64.0634656,46.3121784 63.6410928,45.8898055 63.6410928,45.3687822 C63.6410928,44.8477588 64.0634656,44.4253859 64.584489,44.4253859 L71.4455525,44.4253859 C71.9665758,44.4253859 72.3889487,44.8477588 72.3889487,45.3687822 C72.3889487,45.8898055 71.9665758,46.3121784 71.4455525,46.3121784 L64.584489,46.3121784 Z" id="phone" fill="#F3C969" fill-rule="nonzero"></path>
            </g>
        </g>
    </g>
</svg>