<?xml version="1.0" encoding="UTF-8"?>
<svg width="26px" height="26px" viewBox="0 0 26 26" version="1.1" xmlns="http://www.w3.org/2000/svg" xmlns:xlink="http://www.w3.org/1999/xlink">
    <!-- Generator: Sketch 42 (36781) - http://www.bohemiancoding.com/sketch -->
    <title>ic_dates</title>
    <desc>Created with Sketch.</desc>
    <defs></defs>
    <g id="Netpulse" stroke="none" stroke-width="1" fill="none" fill-rule="evenodd">
        <g id="Desktop-HD" transform="translate(-103.000000, -300.000000)" fill-rule="nonzero" fill="#F3C969">
            <path d="M104.787879,307.516469 L127.212121,307.516469 L127.212121,303.874835 L124.613966,303.874835 L124.613966,305.173913 C124.613966,305.609046 124.26122,305.961792 123.826087,305.961792 L120.695652,305.961792 C120.260519,305.961792 119.907773,305.609046 119.907773,305.173913 L119.907773,303.874835 L112.092227,303.874835 L112.092227,305.173913 C112.092227,305.609046 111.739481,305.961792 111.304348,305.961792 L108.173913,305.961792 C107.73878,305.961792 107.386034,305.609046 107.386034,305.173913 L107.386034,303.874835 L104.787879,303.874835 L104.787879,307.516469 Z M104.787879,309.092227 L104.787879,324.212121 L127.212121,324.212121 L127.212121,309.092227 L104.787879,309.092227 Z M112.092227,302.299078 L119.907773,302.299078 L119.907773,301 C119.907773,300.564867 120.260519,300.212121 120.695652,300.212121 L123.826087,300.212121 C124.26122,300.212121 124.613966,300.564867 124.613966,301 L124.613966,302.299078 L128,302.299078 C128.435133,302.299078 128.787879,302.651823 128.787879,303.086957 L128.787879,325 C128.787879,325.435133 128.435133,325.787879 128,325.787879 L104,325.787879 C103.564867,325.787879 103.212121,325.435133 103.212121,325 L103.212121,303.086957 C103.212121,302.651823 103.564867,302.299078 104,302.299078 L107.386034,302.299078 L107.386034,301 C107.386034,300.564867 107.73878,300.212121 108.173913,300.212121 L111.304348,300.212121 C111.739481,300.212121 112.092227,300.564867 112.092227,301 L112.092227,302.299078 Z M110.516469,301.787879 L108.961792,301.787879 L108.961792,304.386034 L110.516469,304.386034 L110.516469,301.787879 Z M123.038208,301.787879 L121.483531,301.787879 L121.483531,304.386034 L123.038208,304.386034 L123.038208,301.787879 Z" id="ic_dates"></path>
        </g>
    </g>
</svg>