<?xml version="1.0" encoding="UTF-8"?>
<svg width="26px" height="31px" viewBox="0 0 26 31" version="1.1" xmlns="http://www.w3.org/2000/svg" xmlns:xlink="http://www.w3.org/1999/xlink">
    <!-- Generator: Sketch 42 (36781) - http://www.bohemiancoding.com/sketch -->
    <title>ic_location</title>
    <desc>Created with Sketch.</desc>
    <defs></defs>
    <g id="Netpulse" stroke="none" stroke-width="1" fill="none" fill-rule="evenodd">
        <g id="Desktop-HD" transform="translate(-103.000000, -339.000000)" fill-rule="nonzero" fill="#F3C969">
            <path d="M128.787879,351.978261 C128.787879,356.08784 126.447019,360.269158 122.57072,364.342081 C121.232412,365.748274 119.800923,367.041801 118.36926,368.195085 C117.867796,368.599042 117.40164,368.956974 116.982445,369.265295 C116.728744,369.451894 116.54549,369.581544 116.444353,369.650618 C116.176384,369.833632 115.823616,369.833632 115.555647,369.650618 C115.45451,369.581544 115.271256,369.451894 115.017555,369.265295 C114.59836,368.956974 114.132204,368.599042 113.63074,368.195085 C112.199077,367.041801 110.767588,365.748274 109.42928,364.342081 C105.552981,360.269158 103.212121,356.08784 103.212121,351.978261 C103.212121,344.802318 108.693164,339.212121 116,339.212121 C123.305949,339.212121 128.787879,344.802784 128.787879,351.978261 Z M117.38074,366.967958 C118.761577,365.855617 120.142588,364.607704 121.42928,363.255745 C125.052981,359.448233 127.212121,355.591508 127.212121,351.978261 C127.212121,345.666199 122.42868,340.787879 116,340.787879 C109.570461,340.787879 104.787879,345.665705 104.787879,351.978261 C104.787879,355.591508 106.947019,359.448233 110.57072,363.255745 C111.857412,364.607704 113.238423,365.855617 114.61926,366.967958 C115.102171,367.35697 115.550077,367.700889 115.951195,367.995914 C116.449923,367.700889 116.897829,367.35697 117.38074,366.967958 Z M115.263918,344.085571 C115.521902,343.409675 116.478098,343.409675 116.736082,344.085571 L118.209261,347.945177 L122.666667,347.945177 C123.416366,347.945177 123.742351,348.893387 123.151136,349.354379 L119.562492,352.152578 L120.761178,356.638946 C120.956217,357.368927 120.111389,357.928257 119.515531,357.463645 L116,354.722455 L112.484469,357.463645 C111.888611,357.928257 111.043783,357.368927 111.238822,356.638946 L112.437508,352.152578 L108.848864,349.354379 C108.257649,348.893387 108.583634,347.945177 109.333333,347.945177 L113.790739,347.945177 L115.263918,344.085571 Z M116,346.575957 L115.069415,349.014012 C114.952902,349.319267 114.66007,349.520934 114.333333,349.520934 L111.625081,349.520934 L113.817802,351.23068 C114.067188,351.425135 114.176141,351.749858 114.094511,352.055378 L113.367312,354.777096 L115.515531,353.102049 C115.800337,352.879975 116.199663,352.879975 116.484469,353.102049 L118.632688,354.777096 L117.905489,352.055378 C117.823859,351.749858 117.932812,351.425135 118.182198,351.23068 L120.374919,349.520934 L117.666667,349.520934 C117.33993,349.520934 117.047098,349.319267 116.930585,349.014012 L116,346.575957 Z" id="ic_location"></path>
        </g>
    </g>
</svg>