<?xml version="1.0" encoding="UTF-8"?>
<svg width="100px" height="100px" viewBox="0 0 100 100" version="1.1" xmlns="http://www.w3.org/2000/svg" xmlns:xlink="http://www.w3.org/1999/xlink">
    <!-- Generator: Sketch 42 (36781) - http://www.bohemiancoding.com/sketch -->
    <title>ic_manager</title>
    <desc>Created with Sketch.</desc>
    <defs></defs>
    <g id="Home" stroke="none" stroke-width="1" fill="none" fill-rule="evenodd">
        <g id="Desktop-HD-Copy-3" transform="translate(-1326.000000, -287.000000)">
            <g id="ic_manager" transform="translate(1326.000000, 287.000000)">
                <circle id="bg" stroke="#4A4A4A" stroke-width="2" fill="#FFFFFF" cx="50" cy="50" r="49.0566038"></circle>
                <path d="M59.4749795,52.1134911 L59.4749795,46.3494668 L57.0959803,46.3494668 L57.0959803,44.4626743 L61.3617719,44.4626743 L61.3617719,47.5583711 L64.4574687,44.4626743 L69.2780968,44.4626743 C74.2622826,44.4626743 78.3018868,40.4230702 78.3018868,35.4388843 C78.3018868,30.4546985 74.2622826,26.4150943 69.2780968,26.4150943 L55.9885152,26.4150943 C51.0082296,26.4150943 46.9824446,30.4507913 46.9824446,35.4388843 L45.0956522,35.4388843 C45.0956522,29.4097818 49.9651429,24.5283019 55.9885152,24.5283019 L69.2780968,24.5283019 C75.3043293,24.5283019 80.1886792,29.4126518 80.1886792,35.4388843 C80.1886792,41.4651169 75.3043293,46.3494668 69.2780968,46.3494668 L65.2390038,46.3494668 L59.4749795,52.1134911 Z M69.2780968,35.4388843 L69.2780968,37.6538146 L67.0631665,37.6538146 L67.0631665,35.4388843 L69.2780968,35.4388843 Z M63.7407711,35.4388843 L63.7407711,37.6538146 L61.5258409,37.6538146 L61.5258409,35.4388843 L63.7407711,35.4388843 Z M58.2034454,35.4388843 L58.2034454,37.6538146 L55.9885152,37.6538146 L55.9885152,35.4388843 L58.2034454,35.4388843 Z" id="talk" fill="#17BEBB" fill-rule="nonzero"></path>
                <path d="M52.4945665,51.1559555 C49.7131072,51.6220758 47.6528923,50.7544808 45.9723687,48.4570984 C45.710779,48.0994886 45.4583892,47.7072353 45.2139111,47.279976 L46.8692417,47.2476254 C46.6478303,47.6722466 46.3423137,48.078348 45.9723687,48.4570984 C44.4381386,50.0278458 41.7957966,51.1281788 39.4488556,51.1281788 C38.5304244,51.1281788 37.6928301,51.013952 36.8994978,50.7696344 C36.8971612,50.8657634 36.8959844,50.9622671 36.8959844,51.0591263 C36.8959844,56.3670451 40.4297816,60.6089623 44.694918,60.6089623 C48.9343384,60.6089623 52.4518897,56.4182643 52.4945665,51.1559555 Z M37.1065966,48.8464361 C37.816545,49.1169241 38.572618,49.2413864 39.4488556,49.2413864 C41.7072464,49.2413864 44.4113512,47.880497 45.19623,46.3752622 L45.9942998,44.8447297 L46.8515606,46.3429116 C47.0037171,46.6088262 47.156548,46.8560046 47.3110407,47.0849607 C48.6523822,49.0728105 50.1190009,49.6870443 52.3572385,49.2639356 C51.6669479,44.8270706 48.4669434,41.5115053 44.694918,41.5115053 C41.0423709,41.5115053 37.9266842,44.6205212 37.1065966,48.8464361 Z M39.5406071,60.7490685 C36.8088283,58.7196915 35.009192,55.125424 35.009192,51.0591263 C35.009192,44.7779759 39.3034526,39.6247129 44.694918,39.6247129 C50.0865515,39.6247129 54.3817514,44.7782012 54.3817514,51.0591263 C54.3817514,54.9040605 52.7722537,58.3270975 50.2871206,60.4040639 L50.2871206,64.3852577 L58.3914989,67.2885643 C60.8483129,68.1670219 62.4692371,70.4949806 62.4692371,73.1172847 L62.4692371,77.3587121 L27.3584906,77.3587121 L27.3584906,73.1172847 C27.3584906,70.4946885 28.979705,68.1668482 31.4367654,67.2887686 L39.5406071,64.3852861 L39.5406071,60.7490685 Z M41.4273995,61.8318963 L41.4273995,65.7135162 L40.802201,65.9375153 L32.0724406,69.0652545 C30.3693109,69.6739021 29.245283,71.2878511 29.245283,73.1172847 L29.245283,75.4719196 L60.5824446,75.4719196 L60.5824446,73.1172847 C60.5824446,71.2880095 59.4585462,69.6738753 57.7557101,69.0650096 L48.4003281,65.7135446 L48.4003281,61.6329439 C47.2614973,62.1886202 46.0108516,62.4957547 44.694918,62.4957547 C43.5455744,62.4957547 42.446073,62.2614567 41.4273995,61.8318963 Z" id="manager" fill="#E54B4B" fill-rule="nonzero"></path>
            </g>
        </g>
    </g>
</svg>