<?xml version="1.0" encoding="UTF-8"?>
<svg width="100px" height="100px" viewBox="0 0 100 100" version="1.1" xmlns="http://www.w3.org/2000/svg" xmlns:xlink="http://www.w3.org/1999/xlink">
    <!-- Generator: Sketch 42 (36781) - http://www.bohemiancoding.com/sketch -->
    <title>ic_pen</title>
    <desc>Created with Sketch.</desc>
    <defs></defs>
    <g id="Home" stroke="none" stroke-width="1" fill="none" fill-rule="evenodd">
        <g id="Desktop-HD-Copy-3" transform="translate(-1233.000000, -394.000000)">
            <g id="ic_pen" transform="translate(1233.000000, 394.000000)">
                <circle id="bg" stroke="#4A4A4A" stroke-width="2" fill="#FFFFFF" cx="50" cy="50" r="49.0566038"></circle>
                <path d="M48.5849069,51.8038037 C46.0824822,51.3581864 44.1823912,49.1712928 44.1823912,46.5408805 C44.1823912,43.5885678 46.5759905,41.1949686 49.5283031,41.1949686 C52.4806158,41.1949686 54.8742151,43.5885678 54.8742151,46.5408805 C54.8742151,49.1712928 52.974124,51.3581864 50.4716994,51.8038037 L50.4716994,74.2138365 L52.236573,74.2138365 L64.9644414,47.6974438 L56.7055404,34.2767296 L42.3510659,34.2767296 L34.0921648,47.6974438 L46.8200333,74.2138365 L48.5849069,74.2138365 L48.5849069,51.8038037 Z M40.7138119,33.3371878 L35.5207576,25.0283009 C35.1280406,24.3999537 35.579779,23.5849057 36.320756,23.5849057 L61.6352214,23.5849057 C62.3365252,23.5849057 62.7926532,24.3229363 62.4790206,24.9502015 L58.3111989,33.285845 L66.8411883,47.1470779 C67.0093756,47.4203823 67.0270976,47.7604399 66.8882305,48.0497463 L53.6806834,75.5654696 C53.5236802,75.8925595 53.1930092,76.1006289 52.8301899,76.1006289 L46.2264163,76.1006289 C45.863597,76.1006289 45.5329261,75.8925595 45.3759229,75.5654696 L32.1683757,48.0497463 C32.0295087,47.7604399 32.0472306,47.4203823 32.2154179,47.1470779 L40.7138119,33.3371878 Z M60.1087742,25.4716981 L38.0228764,25.4716981 L42.3467757,32.3899371 L56.6496547,32.3899371 L60.1087742,25.4716981 Z M52.9874226,46.5408805 C52.9874226,44.6306145 51.4385691,43.081761 49.5283031,43.081761 C47.6180372,43.081761 46.0691836,44.6306145 46.0691836,46.5408805 C46.0691836,48.4511465 47.6180372,50 49.5283031,50 C51.4385691,50 52.9874226,48.4511465 52.9874226,46.5408805 Z" id="ic+pen" fill="#F3C969" fill-rule="nonzero"></path>
            </g>
        </g>
    </g>
</svg>