<?xml version="1.0" encoding="UTF-8"?>
<svg width="25px" height="31px" viewBox="0 0 25 31" version="1.1" xmlns="http://www.w3.org/2000/svg" xmlns:xlink="http://www.w3.org/1999/xlink">
    <!-- Generator: Sketch 42 (36781) - http://www.bohemiancoding.com/sketch -->
    <title>ic_position</title>
    <desc>Created with Sketch.</desc>
    <defs></defs>
    <g id="Netpulse" stroke="none" stroke-width="1" fill="none" fill-rule="evenodd">
        <g id="Desktop-HD" transform="translate(-104.000000, -259.000000)" fill-rule="nonzero" fill="#F3C969">
            <path d="M120.580982,265.831357 L120.580982,269.456522 C120.580982,269.891655 120.228237,270.244401 119.793103,270.244401 L113.068966,270.244401 C112.633832,270.244401 112.281087,269.891655 112.281087,269.456522 L112.281087,265.831357 L105.787879,265.831357 L105.787879,287.432086 L127.07419,287.432086 L127.07419,265.831357 L120.580982,265.831357 Z M120.580982,264.255599 L127.862069,264.255599 C128.297202,264.255599 128.649948,264.608345 128.649948,265.043478 L128.649948,288.219965 C128.649948,288.655098 128.297202,289.007843 127.862069,289.007843 L105,289.007843 C104.564867,289.007843 104.212121,288.655098 104.212121,288.219965 L104.212121,265.043478 C104.212121,264.608345 104.564867,264.255599 105,264.255599 L112.281087,264.255599 L112.281087,263.152174 C112.281087,260.971587 114.157711,259.212121 116.431034,259.212121 C118.704358,259.212121 120.580982,260.971587 120.580982,263.152174 L120.580982,264.255599 Z M119.65311,277.145225 C118.751726,277.292082 117.713833,277.046773 116.987976,276.421243 C115.858002,277.125391 114.405459,277.328169 113.197271,277.032066 C113.344489,278.738192 114.739216,280.070056 116.431034,280.070056 C118.08405,280.070056 119.455197,278.796136 119.65311,277.145225 Z M113.427545,275.463567 C114.38111,275.759027 115.749148,275.535281 116.564833,274.77052 C116.93591,274.42261 117.534505,274.512272 117.787358,274.953639 C118.095327,275.491214 118.928493,275.701611 119.478872,275.581233 C119.021672,274.304866 117.826797,273.396574 116.431034,273.396574 C115.077485,273.396574 113.914028,274.249115 113.427545,275.463567 Z M113.625914,280.729927 C112.403734,279.837997 111.608673,278.378866 111.608673,276.733 C111.608673,274.024082 113.763395,271.820817 116.431034,271.820817 C119.097291,271.820817 121.253396,274.024735 121.253396,276.733 C121.253396,278.3782 120.458085,279.837207 119.236155,280.729305 L119.236155,281.47714 L122.70646,282.504753 L122.259057,284.01566 L117.660397,282.653925 L117.660397,281.484727 C117.268016,281.589825 116.856008,281.645814 116.431034,281.645814 C116.006009,281.645814 115.594009,281.589886 115.201672,281.484894 L115.201672,282.653925 L110.603012,284.01566 L110.155609,282.504753 L113.625914,281.47714 L113.625914,280.729927 Z M119.005225,263.152174 C119.005225,261.86537 117.855987,260.787879 116.431034,260.787879 C115.006082,260.787879 113.856844,261.86537 113.856844,263.152174 L113.856844,268.668643 L119.005225,268.668643 L119.005225,263.152174 Z M116.431034,261.891304 C117.172707,261.891304 117.775862,262.456174 117.775862,263.152174 C117.775862,263.848174 117.172707,264.413043 116.431034,264.413043 C115.687345,264.413043 115.086207,263.848174 115.086207,263.152174 C115.086207,262.456174 115.687345,261.891304 116.431034,261.891304 Z" id="ic_position"></path>
        </g>
    </g>
</svg>