<?xml version="1.0" encoding="UTF-8"?>
<svg width="100px" height="100px" viewBox="0 0 100 100" version="1.1" xmlns="http://www.w3.org/2000/svg" xmlns:xlink="http://www.w3.org/1999/xlink">
    <!-- Generator: Sketch 42 (36781) - http://www.bohemiancoding.com/sketch -->
    <title>ic_sf</title>
    <desc>Created with Sketch.</desc>
    <defs></defs>
    <g id="Home" stroke="none" stroke-width="1" fill="none" fill-rule="evenodd">
        <g id="Desktop-HD-Copy-3" transform="translate(-1039.000000, -361.000000)">
            <g id="ic_sf" transform="translate(1039.000000, 361.000000)">
                <g transform="translate(0.943396, 0.943396)">
                    <circle id="bg" stroke="#4A4A4A" stroke-width="2" fill="#FFFFFF" cx="49.0566038" cy="49.0566038" r="49.0566038"></circle>
                    <path d="M74.97587,57.3393396 L69.8916981,57.561457 L69.8916981,49.0106184 C71.5596226,47.751499 73.2697904,46.0399686 74.97587,43.7547484 L74.97587,57.3393396 Z M74.97587,64.8054822 L69.8916981,64.8054822 L69.8916981,60.1083124 L74.97587,59.8875577 L74.97587,64.8054822 Z M69.8916981,69.8896541 L74.97587,69.8896541 L74.97587,67.3468868 L69.8916981,67.3468868 L69.8916981,69.8896541 Z M69.8916981,39.7552725 L69.8916981,39.7443711 L69.8916981,39.3791719 L74.8491405,39.3791719 C73.2779665,41.9437421 71.6195807,44.0572642 69.8916981,45.6693187 L69.8916981,39.7552725 Z M67.3489308,47.6315828 C66.7466247,48.0172222 66.1402306,48.349717 65.5283857,48.6277044 L65.5283857,45.7837841 C65.5283857,45.6516038 65.4902306,45.5316876 65.4534382,45.4117715 C66.121153,45.0016038 66.7534382,44.501499 67.3489308,43.8719392 L67.3489308,47.6315828 Z M67.3489308,57.6731971 L65.5283857,57.7522327 L65.5283857,51.4075786 C66.1238784,51.1936373 66.7302725,50.9388155 67.3489308,50.6199476 L67.3489308,57.6731971 Z M39.3798532,45.4158595 C40.009413,45.8955241 40.6648637,46.317956 41.3339413,46.7063208 C41.3312159,46.7390252 41.313501,46.7676415 41.313501,46.8003459 L41.313501,58.0860901 C41.313501,58.3545388 41.4157023,58.5889203 41.5560587,58.7933229 L39.3798532,58.887348 L39.3798532,45.4158595 Z M39.3798532,32.103805 C41.5424319,36.9263417 44.0375052,40.988501 46.7424319,44.1853564 C46.7424319,44.2030713 46.7315304,44.2194235 46.7315304,44.238501 L46.7315304,46.1721488 C46.4371908,46.0822117 46.1537526,45.9909119 45.8839413,45.8982495 C45.8307966,45.8764465 45.7871908,45.8396541 45.7285954,45.8246646 C45.4819497,45.7619811 45.2462055,45.6584172 45.0036478,45.5807442 C44.1655975,45.2591509 43.6150734,45.0029665 43.6055346,44.9975157 C43.5578407,44.9757128 43.5087841,44.9784382 43.4610901,44.962086 C42.0139203,44.2616667 40.6485115,43.2996122 39.3798532,42.1072642 L39.3798532,32.103805 Z M57.5675891,47.0401782 L57.5675891,49.0951048 C56.1749266,48.6426939 54.7890776,47.9231971 53.4250314,46.9584172 C54.8354088,47.0033857 56.2703145,47.027914 57.5675891,47.0401782 L57.5675891,47.0401782 Z M60.1103564,49.6251887 L60.1103564,47.0551677 L60.2697904,47.0551677 C60.5014465,47.0551677 60.7085744,46.9761321 60.8952621,46.8657547 C61.6256604,46.7799057 62.3219916,46.6504507 62.9856184,46.4664885 L62.9856184,49.4221488 C62.0344654,49.6156499 61.076499,49.7028616 60.1103564,49.6251887 L60.1103564,49.6251887 Z M60.1103564,52.1761321 C60.4060587,52.1965723 60.6963103,52.2211006 61.0097275,52.2211006 C61.6351992,52.2211006 62.3015514,52.1529665 62.9856184,52.0466771 L62.9856184,57.8626101 L60.1103564,57.9879769 L60.1103564,52.1761321 Z M54.692327,58.0860901 L54.692327,50.6799057 C55.6421174,51.13913 56.6014465,51.4975157 57.5675891,51.7509748 L57.5675891,58.0860901 C57.5675891,58.0901782 57.5703145,58.0942662 57.5703145,58.0983543 L54.6650734,58.2237212 C54.6705241,58.1760273 54.692327,58.1351468 54.692327,58.0860901 L54.692327,58.0860901 Z M49.2742977,58.0860901 L49.2742977,46.8616667 C50.2159119,47.7419602 51.1738784,48.5200524 52.1495597,49.1918553 L52.1495597,58.0860901 C52.1495597,58.1733019 52.1822642,58.2482495 52.199979,58.3313732 L49.1993501,58.4608281 C49.2375052,58.3409119 49.2742977,58.2196331 49.2742977,58.0860901 L49.2742977,58.0860901 Z M43.857631,47.8986688 C44.042956,47.9654403 44.2337317,48.0185849 44.4231447,48.0771803 C45.0881342,48.3224633 45.8744025,48.5895493 46.7315304,48.8212055 L46.7315304,58.0860901 C46.7315304,58.2564256 46.7683229,58.4172222 46.8282809,58.564392 L43.6763941,58.7020231 C43.7813208,58.5166981 43.857631,58.3136583 43.857631,58.0860901 L43.857631,47.8986688 Z M36.837086,39.3328407 C33.918218,35.6535954 31.5798532,30.9959434 29.8097275,26.6653354 L36.837086,26.6653354 L36.837086,39.3328407 Z M36.837086,58.9977254 L29.2101468,59.3274948 L29.2101468,31.58326 C31.2187421,35.788501 33.750608,39.9610377 36.837086,43.1388155 L36.837086,58.9977254 Z M36.837086,69.8896541 L29.2101468,69.8896541 L29.2101468,61.8784382 L36.837086,61.5473061 L36.837086,69.8896541 Z M29.2087841,77.517956 L36.837086,77.517956 L36.837086,72.4337841 L29.2087841,72.4337841 L29.2087841,77.517956 Z M78.790021,69.8896541 L77.5186373,69.8896541 L77.5186373,59.778543 L78.8431656,59.7199476 C79.5449476,59.6886059 80.0886583,59.0972013 80.0586792,58.3940566 C80.0287002,57.6936373 79.4659119,57.1771803 78.7368763,57.1771803 L77.5186373,57.2303249 L77.5186373,35.565021 C77.5186373,34.863239 76.9490356,34.2936373 76.2472537,34.2936373 C75.5454717,34.2936373 74.97587,34.863239 74.97587,35.565021 L74.97587,36.8364046 L69.8916981,36.8364046 L69.8916981,35.565021 C69.8916981,34.863239 69.3220964,34.2936373 68.6189518,34.2936373 C67.9185325,34.2936373 67.3489308,34.863239 67.3489308,35.565021 L67.3489308,39.3791719 C65.3226205,43.4672222 62.9420126,44.3188994 59.0392872,44.4633438 C58.9738784,44.4660692 58.9193711,44.4960482 58.8580503,44.5083124 C56.3357233,44.4946855 52.8922222,44.4415409 50.27587,44.264392 C46.0760797,40.0087317 42.2496646,33.4405975 39.3798532,25.2290671 L39.3798532,20.3097799 C39.3798532,19.6079979 38.8102516,19.0383962 38.1084696,19.0383962 C37.4066876,19.0383962 36.837086,19.6079979 36.837086,20.3097799 L36.837086,24.1239308 L29.2101468,24.1239308 L29.2101468,20.3097799 C29.2101468,19.6079979 28.6405451,19.0383962 27.9387631,19.0383962 C27.2369811,19.0383962 26.6673795,19.6079979 26.6673795,20.3097799 L26.6673795,25.3517086 L26.6673795,25.354434 L26.6673795,59.4405975 L20.2573166,59.7199476 C19.5555346,59.7499266 19.0118239,60.3454193 19.0390776,61.0444759 C19.0731447,61.728543 19.6345702,62.2613522 20.3104612,62.2613522 L20.3663312,62.2613522 L26.6673795,61.9874528 L26.6673795,77.517956 L25.3959958,77.517956 C24.6942138,77.517956 24.1246122,78.0875577 24.1246122,78.7893396 C24.1246122,79.4897589 24.6942138,80.0593606 25.3959958,80.0593606 L40.6512369,80.0593606 C41.3530189,80.0593606 41.9226205,79.4897589 41.9226205,78.7893396 C41.9226205,78.0875577 41.3530189,77.517956 40.6512369,77.517956 L39.3798532,77.517956 L39.3798532,61.435566 L67.3489308,60.2200524 L67.3489308,69.8896541 L66.0775472,69.8896541 C65.3757652,69.8896541 64.8061635,70.4592558 64.8061635,71.1610377 C64.8061635,71.8628197 65.3757652,72.4324214 66.0775472,72.4324214 L78.790021,72.4324214 C79.4918029,72.4324214 80.0614046,71.8628197 80.0614046,71.1610377 C80.0614046,70.4592558 79.4918029,69.8896541 78.790021,69.8896541 L78.790021,69.8896541 Z" id="bridge" stroke="#FFFFFF" stroke-width="0.5" fill="#E54B4B"></path>
                </g>
            </g>
        </g>
    </g>
</svg>