<?xml version="1.0" encoding="UTF-8"?>
<svg width="28px" height="33px" viewBox="0 0 28 33" version="1.1" xmlns="http://www.w3.org/2000/svg" xmlns:xlink="http://www.w3.org/1999/xlink">
    <!-- Generator: Sketch 42 (36781) - http://www.bohemiancoding.com/sketch -->
    <title>ic_website</title>
    <desc>Created with Sketch.</desc>
    <defs></defs>
    <g id="Netpulse" stroke="none" stroke-width="1" fill="none" fill-rule="evenodd">
        <g id="Desktop-HD" transform="translate(-103.000000, -374.000000)" fill-rule="nonzero" fill="#F3C969">
            <g id="ic_website" transform="translate(103.000000, 374.000000)">
                <path d="M9.14244052,18.2902462 L18.8686576,18.2902462 C18.8472721,16.4948612 18.5389522,14.7379003 17.944168,13.0426342 L10.0671418,13.0426342 C9.47238945,14.7378707 9.16399915,16.4948484 9.14244052,18.2902462 Z M9.19643412,19.8660038 C9.33468197,21.5932711 9.73260436,23.3491665 10.3906055,25.1136158 L17.619397,25.1136158 C18.2777898,23.3491212 18.676018,21.5932405 18.8144862,19.8660038 L9.19643412,19.8660038 Z M26.1876888,18.2902462 C26.0691791,16.3862795 25.523848,14.6058319 24.6458595,13.0426342 L19.6071693,13.0426342 C20.1471029,14.7450402 20.4261331,16.5015037 20.4446249,18.2902462 L26.1876888,18.2902462 Z M26.1875584,19.8660038 L20.3941074,19.8660038 C20.2658486,21.5977756 19.8980591,23.3533829 19.291061,25.1136158 L24.6494511,25.1136158 C25.5244401,23.5447974 26.0688723,21.7636835 26.1875584,19.8660038 Z M1.79996516,18.2902462 L7.56647075,18.2902462 C7.58512213,16.5014935 7.86422511,14.7450174 8.40414467,13.0426342 L3.25923698,13.0426342 C2.40080084,14.6027516 1.88379772,16.3819034 1.79996516,18.2902462 Z M1.82850844,19.8660038 C1.97927886,21.759461 2.54406569,23.5418196 3.4290787,25.1136158 L8.71904512,25.1136158 C8.11239665,23.3534143 7.74488336,21.5977973 7.61682559,19.8660038 L1.82850844,19.8660038 Z M10.7110701,11.4668766 L17.3001996,11.4668766 C16.5438079,9.85102006 15.5142479,8.30098664 14.2119576,6.83846274 C14.143331,6.83734207 14.0745611,6.8367796 14.0056522,6.8367796 C13.9371665,6.8367796 13.8683283,6.83733235 13.7991517,6.83842921 C12.4969566,8.30085579 11.4674501,9.85091821 10.7110701,11.4668766 Z M23.5913887,11.4668766 C21.8416618,9.24786113 19.3373071,7.66036245 16.4553282,7.07964983 C17.5291071,8.48057036 18.3859435,9.94846949 19.0261138,11.4668766 L23.5913887,11.4668766 Z M4.29928613,11.4668766 L8.98517554,11.4668766 C9.62722613,9.94391413 10.4871852,8.47180567 11.5653312,7.06720084 C8.59938289,7.63670812 6.05038708,9.22762573 4.29928613,11.4668766 Z M11.0465905,26.6893734 C11.7722776,28.2678481 12.7054244,29.8483835 13.8463186,31.4166879 C13.8854452,31.417077 13.9246147,31.417272 13.9638261,31.417272 C14.030348,31.417272 14.0967462,31.4167377 14.1630168,31.4156731 C15.3039587,29.8476201 16.2372127,28.2674378 16.9630665,26.6893734 L11.0465905,26.6893734 Z M23.6050496,26.6893734 L18.6840956,26.6893734 C18.0410855,28.2000822 17.2221594,29.7099788 16.2275205,31.206941 C19.2062401,30.6461907 21.8057319,28.9992222 23.6050496,26.6893734 Z M4.47746299,26.6893734 C6.27897474,29.0037579 8.85284558,30.6579211 11.7855432,31.2133143 C10.7893449,29.7143221 9.96932779,28.2022758 9.325696,26.6893734 L4.47746299,26.6893734 Z M27.7878788,19.078125 C27.7878788,26.7618972 21.5998997,32.9930296 13.9638261,32.9930296 C6.37900832,32.9930296 0.212121212,26.5797497 0.212121212,18.8421501 C0.212121212,11.4301742 5.97820003,5.57518151 13.4098944,5.27300858 C13.6108991,5.26506669 13.8092438,5.26102203 14.0056522,5.26102203 C21.6511541,5.26102203 27.7878788,11.403798 27.7878788,19.078125 Z"></path>
            </g>
        </g>
    </g>
</svg>