<?xml version="1.0" encoding="UTF-8"?>
<svg width="43px" height="43px" viewBox="0 0 43 43" version="1.1" xmlns="http://www.w3.org/2000/svg" xmlns:xlink="http://www.w3.org/1999/xlink">
    <!-- Generator: Sketch 42 (36781) - http://www.bohemiancoding.com/sketch -->
    <title>linkedin</title>
    <desc>Created with Sketch.</desc>
    <defs></defs>
    <g id="Scout" stroke="none" stroke-width="1" fill="none" fill-rule="evenodd">
        <path d="M21.5,43 C9.62587788,43 0,33.3741221 0,21.5 C0,9.62587788 9.62587788,0 21.5,0 C33.3741221,0 43,9.62587788 43,21.5 C43,33.3741221 33.3741221,43 21.5,43 Z M21.5,40 C31.7172679,40 40,31.7172679 40,21.5 C40,11.2827321 31.7172679,3 21.5,3 C11.2827321,3 3,11.2827321 3,21.5 C3,31.7172679 11.2827321,40 21.5,40 Z M31,29 L27,29 L27,22.25 C27,21.19 25.81,20.31 24.75,20.31 C23.69,20.31 23,21.19 23,22.25 L23,29 L19,29 L19,17 L23,17 L23,19 C23.66,17.93 25.36,17.24 26.5,17.24 C29,17.24 31,19.28 31,21.75 L31,29 Z M17,29 L13,29 L13,17 L17,17 L17,29 Z M15,11 C16.1045695,11 17,11.8954305 17,13 C17,14.1045695 16.1045695,15 15,15 C13.8954305,15 13,14.1045695 13,13 C13,11.8954305 13.8954305,11 15,11 Z" id="linkedin" fill="#FFFFFF" fill-rule="nonzero"></path>
    </g>
</svg>