<?xml version="1.0" encoding="UTF-8"?>
<svg width="44px" height="44px" viewBox="0 0 44 44" version="1.1" xmlns="http://www.w3.org/2000/svg" xmlns:xlink="http://www.w3.org/1999/xlink">
    <!-- Generator: Sketch 42 (36781) - http://www.bohemiancoding.com/sketch -->
    <title>phone</title>
    <desc>Created with Sketch.</desc>
    <defs></defs>
    <g id="Scout" stroke="none" stroke-width="1" fill="none" fill-rule="evenodd">
        <path d="M22,43.5 C10.1258779,43.5 0.5,33.8741221 0.5,22 C0.5,10.1258779 10.1258779,0.5 22,0.5 C33.8741221,0.5 43.5,10.1258779 43.5,22 C43.5,33.8741221 33.8741221,43.5 22,43.5 Z M22,40.5 C32.2172679,40.5 40.5,32.2172679 40.5,22 C40.5,11.7827321 32.2172679,3.5 22,3.5 C11.7827321,3.5 3.5,11.7827321 3.5,22 C3.5,32.2172679 11.7827321,40.5 22,40.5 Z M16.62,20.79 C18.06,23.62 20.38,25.94 23.21,27.38 L25.41,25.18 C25.69,24.9 26.08,24.82 26.43,24.93 C27.55,25.3 28.75,25.5 30,25.5 C30.5522847,25.5 31,25.9477153 31,26.5 L31,30 C31,30.5522847 30.5522847,31 30,31 C20.6111593,31 13,23.3888407 13,14 C13,13.7347835 13.1053568,13.4804296 13.2928932,13.2928932 C13.4804296,13.1053568 13.7347835,13 14,13 L17.5,13 C18.0522847,13 18.5,13.4477153 18.5,14 C18.5,15.25 18.7,16.45 19.07,17.57 C19.18,17.92 19.1,18.31 18.82,18.59 L16.62,20.79 Z" id="phone" fill="#FFFFFF" fill-rule="nonzero"></path>
    </g>
</svg>