<?xml version="1.0" encoding="UTF-8"?>
<svg width="43px" height="43px" viewBox="0 0 43 43" version="1.1" xmlns="http://www.w3.org/2000/svg" xmlns:xlink="http://www.w3.org/1999/xlink">
    <!-- Generator: Sketch 42 (36781) - http://www.bohemiancoding.com/sketch -->
    <title>twitter</title>
    <desc>Created with Sketch.</desc>
    <defs></defs>
    <g id="Scout" stroke="none" stroke-width="1" fill="none" fill-rule="evenodd">
        <path d="M21.5,43 C9.62587788,43 0,33.3741221 0,21.5 C0,9.62587788 9.62587788,0 21.5,0 C33.3741221,0 43,9.62587788 43,21.5 C43,33.3741221 33.3741221,43 21.5,43 Z M21.5,40 C31.7172679,40 40,31.7172679 40,21.5 C40,11.2827321 31.7172679,3 21.5,3 C11.2827321,3 3,11.2827321 3,21.5 C3,31.7172679 11.2827321,40 21.5,40 Z M32.4600391,15.5 C31.8800391,16.37 31.1600391,17.13 30.3200391,17.73 C30.3300391,17.92 30.3300391,18.1 30.3300391,18.29 C30.3300391,23.96 26.0000391,30.5 18.1200391,30.5 C15.7000391,30.5 13.4400391,29.79 11.5400391,28.57 C11.8800391,28.61 12.2200391,28.63 12.5600391,28.63 C14.5800391,28.63 16.4300391,27.95 17.8900391,26.79 C16.0000391,26.76 14.4300391,25.5 13.8900391,23.81 C14.1500391,23.86 14.4200391,23.89 14.6900391,23.89 C15.0800391,23.89 15.4600391,23.84 15.8200391,23.74 C13.8600391,23.35 12.3800391,21.61 12.3800391,19.53 C12.3800391,19.5 12.3800391,19.5 12.3800391,19.5 C12.9600391,19.8 13.6200391,20 14.3300391,20 C13.1700391,19.25 12.4200391,17.93 12.4200391,16.44 C12.4200391,15.66 12.6300391,14.92 13.0000391,14.29 C15.1100391,16.88 18.2800391,18.59 21.8400391,18.77 C21.7700391,18.46 21.7300391,18.13 21.7300391,17.79 C21.7300391,15.42 23.6500391,13.5 26.0000391,13.5 C27.2600391,13.5 28.3700391,14 29.1600391,14.86 C30.1300391,14.66 31.0500391,14.31 31.8800391,13.81 C31.5600391,14.82 30.8800391,15.66 30.0000391,16.19 C30.8600391,16.08 31.6900391,15.85 32.4600391,15.5 Z" id="twitter" fill="#FFFFFF" fill-rule="nonzero"></path>
    </g>
</svg>